
<svg version="1.0" xmlns="http://www.w3.org/2000/svg"
 width="1024.000000pt" height="1024.000000pt" viewBox="0 0 1024.000000 1024.000000"
 preserveAspectRatio="xMidYMid meet">

<g transform="translate(0.000000,1024.000000) scale(0.100000,-0.100000)"
fill="#1976d2" stroke="none">
<path d="M3622 8999 c-309 -40 -562 -249 -662 -547 -75 -224 -63 -477 31 -665
101 -202 260 -341 690 -607 318 -197 389 -267 389 -385 0 -50 -40 -117 -91
-151 -87 -58 -248 -70 -336 -26 -85 44 -130 124 -141 249 -3 38 -11 68 -20 75
-10 9 -89 14 -281 16 -229 4 -268 2 -279 -11 -10 -12 -10 -34 -2 -104 52 -420
250 -664 616 -759 84 -22 127 -27 283 -30 102 -3 192 -9 204 -15 41 -23 48 5
-342 -1294 -111 -368 -206 -683 -211 -698 -8 -24 -6 -32 15 -53 24 -24 25 -24
182 -18 188 6 199 8 214 35 6 12 80 222 164 468 223 652 223 651 251 698 30
51 81 88 144 103 25 5 286 32 580 60 294 27 657 61 805 75 387 37 436 40 478
26 46 -16 84 -45 103 -82 8 -16 100 -327 204 -691 128 -447 196 -668 208 -681
17 -17 40 -20 184 -24 176 -6 212 -2 222 23 10 27 -99 522 -325 1469 -164 685
-179 756 -168 776 16 31 45 40 194 59 155 20 197 35 220 80 21 41 19 68 -12
152 -22 60 -39 85 -97 144 -39 39 -90 81 -113 93 -85 43 -110 43 -563 12
-1425 -100 -1369 -97 -1433 -76 -34 10 -75 34 -101 56 -48 42 -65 77 -142 294
-90 255 -161 375 -294 498 -71 66 -96 83 -430 302 -291 191 -340 249 -327 388
12 132 106 209 263 216 98 4 167 -15 208 -58 15 -16 45 -71 66 -122 41 -100
64 -123 110 -112 14 3 127 39 253 80 276 90 268 83 232 205 -45 157 -102 259
-199 358 -132 134 -207 161 -524 189 -244 22 -316 24 -420 10z m2505 -2810
c70 -26 105 -90 138 -251 17 -85 17 -89 0 -108 -10 -11 -32 -22 -49 -25 -28
-5 -483 -47 -1344 -126 -347 -31 -392 -30 -406 8 -10 25 44 210 78 266 40 67
105 111 196 131 38 9 312 36 608 61 295 24 555 46 577 48 87 8 175 6 202 -4z"/>
</g>
</svg>
